<?xml version="1.0" encoding="utf-8"?>
<!-- Generator: Adobe Illustrator 23.0.3, SVG Export Plug-In . SVG Version: 6.00 Build 0)  -->
<svg version="1.1" id="Layer_1" xmlns="http://www.w3.org/2000/svg" xmlns:xlink="http://www.w3.org/1999/xlink" x="0px" y="0px"
	 viewBox="0 0 1080 1080" style="enable-background:new 0 0 1080 1080;" xml:space="preserve">
<style type="text/css">
	.st0{fill:#006736;}
	.st1{fill:#FBF702;}
</style>
<g>
	<g>
		<g>
			<g>
				<path class="st0" d="M137.7,368.4c67.9,0,96.7,36.8,100,82h-51c-3.9-24.5-16.7-41.8-49.7-41.8c-29.1,0-43.5,13.8-43.5,36.4
					c0,23.8,14.9,31.6,58.4,44.4c74,21.9,92.9,51.1,92.9,92.6c0,48.2-32.5,87.2-104.9,87.2c-63,0-102.6-32.4-106.4-88.9h51.3
					c4.7,30.6,25,48.3,57.5,48.3c34,0,49.6-15.7,49.6-40.5c0-28.6-15.8-40.6-61.4-54c-65.7-18.8-89.1-41.8-89.1-84.1
					C41.6,398.2,82.3,368.4,137.7,368.4 M137.7,356.4c-30.7,0-57.1,8.3-76.4,24.1c-20.7,16.9-31.7,40.9-31.7,69.5
					c0,25.3,7.5,44.2,23.6,59.5c15.2,14.5,38.8,26,74.1,36.1c47.5,14,52.7,24.1,52.7,42.4c0,9.2-2.6,15.9-7.9,20.5
					c-6.1,5.3-16.4,8-29.8,8c-13.1,0-23.7-3.3-31.4-9.8c-7.5-6.4-12.3-15.9-14.2-28.3c-0.9-5.8-5.9-10.2-11.9-10.2H33.6
					c-3.3,0-6.5,1.4-8.8,3.8c-2.3,2.4-3.4,5.7-3.2,9c2.1,31,14.3,56.6,35.3,74.1c20.5,17,49.2,26,83.1,26c18.8,0,35.9-2.5,50.7-7.5
					c14.5-4.8,26.9-12,37-21.2c19.1-17.5,29.2-41.9,29.2-70.5c0-52.6-29.4-82.8-101.5-104.1c-45.7-13.5-49.8-19.4-49.8-32.9
					c0-10.5,3.3-24.4,31.5-24.4c23.3,0,34.2,9.2,37.8,31.7c0.9,5.8,6,10.1,11.8,10.1h51c3.3,0,6.5-1.4,8.8-3.8
					c2.3-2.4,3.4-5.7,3.2-9c-2-27.1-12.2-49.9-29.6-65.9C200.5,365.5,172.8,356.4,137.7,356.4L137.7,356.4z"/>
			</g>
			<g>
				<path class="st0" d="M523.7,372.2v293.4h-63.5C355.9,459.1,345.8,437.4,340.8,425.9h-0.4c2.1,37.4,2.2,87.6,2.2,140v99.6H295
					V372.2h66.7c97.4,188.9,112.1,217.6,116.8,231.1h0.7c-2.9-36.3-3.3-84-3.3-131.8v-99.3H523.7 M523.7,360.2H476
					c-6.6,0-12,5.4-12,12v99.3c0,25.2,0.1,50.8,0.7,74.8c-16.6-32.7-44.4-86.7-92.3-179.6c-2.1-4-6.2-6.5-10.7-6.5H295
					c-6.6,0-12,5.4-12,12v293.4c0,6.6,5.4,12,12,12h47.6c6.6,0,12-5.4,12-12V566c0-28.6,0-57.8-0.4-84.7
					c16.6,33.6,45.1,90.4,95.3,189.7c2,4,6.2,6.6,10.7,6.6h63.5c6.6,0,12-5.4,12-12V372.2C535.7,365.6,530.3,360.2,523.7,360.2
					L523.7,360.2z"/>
			</g>
			<g>
				<path class="st0" d="M719.2,372.2l96.1,293.4h-54.6L736,589.2H635.4L612,665.6h-51.1c9.6-28.5,81-261.1,91.7-293.4H719.2
					 M645.7,545.9h79.6c-20.5-65-34.2-107.6-40.6-133.6h-0.6C676.6,445.7,662.7,491.2,645.7,545.9 M719.2,360.2h-66.6
					c-5.2,0-9.8,3.3-11.4,8.2c-5.3,16.1-24.9,79.1-45.5,145.8c-20.3,65.5-41.3,133.3-46.1,147.6c-1.2,3.7-0.6,7.7,1.6,10.8
					c2.3,3.1,5.9,5,9.7,5H612c5.3,0,9.9-3.4,11.5-8.5l20.8-67.9h83l22,68.1c1.6,5,6.2,8.3,11.4,8.3h54.6c3.8,0,7.5-1.8,9.7-5
					c2.3-3.1,2.9-7.1,1.7-10.8l-96.1-293.4C729,363.5,724.4,360.2,719.2,360.2L719.2,360.2z M662,533.9c8.9-28.5,16.6-54.1,23-76.5
					c5.6,18.3,12.6,40.5,21.1,67.4c0.9,3,1.9,6,2.9,9.1H662L662,533.9z"/>
			</g>
			<g>
				<path class="st0" d="M958.5,372.2c55,0,100.6,28.3,100.6,85.5c0,59.8-43.4,90.2-105.6,90.2h-47.9v117.7h-51.9V372.2H958.5
					 M905.6,506.6h44.9c34,0,55.8-12.3,55.8-47.8c0-31.5-22.3-45-54.5-45h-46.3V506.6 M958.5,360.2H853.7c-6.6,0-12,5.4-12,12v293.4
					c0,6.6,5.4,12,12,12h51.9c6.6,0,12-5.4,12-12V559.9h35.9c34.3,0,63.2-8.8,83.7-25.3c22.2-18,33.9-44.5,33.9-76.9
					c0-30.7-11.9-56.2-34.3-73.7C1016.7,368.4,989.6,360.2,958.5,360.2L958.5,360.2z M917.6,425.8h34.3c42.5,0,42.5,24.8,42.5,33
					c0,13.2-3.4,22.3-10.5,27.7c-6.9,5.4-18.1,8.1-33.3,8.1h-32.9V425.8L917.6,425.8z"/>
			</g>
		</g>
	</g>
	<g>
		<g>
			<g>
				<path class="st1" d="M84.9,579.1c4.7,30.6,25,48.3,57.5,48.3c34,0,49.6-15.7,49.6-40.5c0-28.6-15.8-40.6-61.4-54
					c-65.7-18.8-89.1-41.8-89.1-84.1c0-51.7,40.7-81.6,96.1-81.6c67.9,0,96.7,36.8,100,82h-51c-3.9-24.5-16.7-41.8-49.7-41.8
					c-29.1,0-43.5,13.8-43.5,36.4c0,23.8,14.9,31.6,58.4,44.4c74,21.9,93,51.1,93,92.6c0,48.2-32.5,87.2-104.9,87.2
					c-63,0-102.6-32.4-106.4-88.9H84.9z"/>
				<path class="st1" d="M294.2,664.5V371h66.7c97.4,188.9,112.1,217.6,116.8,231.1h0.7c-2.9-36.3-3.3-84-3.3-131.8V371h47.7v293.4
					h-63.5C355,457.9,345,436.2,340,424.8h-0.4c2.1,37.4,2.2,87.6,2.2,140.1v99.6H294.2z"/>
				<path class="st1" d="M634.1,588.1l-23.4,76.4h-51.1c9.6-28.5,81-261.1,91.7-293.4h66.7L814,664.5h-54.6l-24.7-76.4H634.1z
					 M724,544.8c-20.5-65-34.2-107.6-40.6-133.6h-0.6c-7.5,33.3-21.4,78.9-38.5,133.6H724z"/>
				<path class="st1" d="M850.7,371h104.8c55,0,100.6,28.3,100.6,85.5c0,59.8-43.4,90.2-105.6,90.2h-47.9v117.7h-51.9V371z
					 M902.6,505.4h44.9c34,0,55.8-12.3,55.8-47.8c0-31.5-22.3-45-54.5-45h-46.3V505.4z"/>
			</g>
		</g>
	</g>
</g>
</svg>
